<svg width="350" height="512" xmlns="http://www.w3.org/2000/svg">

 <g>
  <title>background</title>
  <rect fill="none" id="canvas_background" height="514" width="352" y="-1" x="-1"/>
 </g>
 <g>
  <title>Layer 1</title>
  <g stroke="null" id="svg_1">
   <g stroke="null" id="svg_2">
    <path stroke="null" id="svg_3" d="m351.206335,247.590928l0,-249.590928l-351.412701,0l0,249.590928l-16.895646,0l0,15.818145l16.895646,0l0,249.590928l351.412701,0l0,-249.590928l16.895646,0l0,-15.818145l-16.895646,0zm-284.717269,-233.772783l218.018698,0l0,104.951367l-218.018698,0l0,-104.951367zm0,233.629951l0,-112.859434l100.783837,0l0,113.002266l-100.783837,0l0,-0.142832zm0,16.103809l0,-0.141826l100.783837,0l0,113.003271l-100.783837,0l0,-112.861445zm-16.451024,0l0,128.67959l0,104.952373l-33.792338,0l0,-233.774795l33.792338,0l0,0.142832zm0,-144.782393l0,128.67959l0,0.142832l-33.792338,0l0,-233.773789l33.792338,0l0,104.951367zm234.471814,378.41335l-218.02079,0l0,-104.952373l218.019744,0l0,104.952373l0.001046,0zm0,-233.630957l0,112.861445l-100.783837,0l0,-113.004277l100.783837,0l0,0.142832zm0,-16.102803l0,0.142832l-100.783837,0l0,-0.001006l0,-113.002266l100.783837,0l0,112.860439zm50.244409,249.732754l-33.792338,0l0,-104.952373l0,-128.677578l0,-0.141826l33.792338,0l0,233.771777zm0,-249.590928l-33.792338,0l0,-0.142832l0,-128.67959l0,-104.950361l33.792338,0l0,233.772783z"/>
   </g>
  </g>
  <g id="svg_4"/>
  <g id="svg_5"/>
  <g id="svg_6"/>
  <g id="svg_7"/>
  <g id="svg_8"/>
  <g id="svg_9"/>
  <g id="svg_10"/>
  <g id="svg_11"/>
  <g id="svg_12"/>
  <g id="svg_13"/>
  <g id="svg_14"/>
  <g id="svg_15"/>
  <g id="svg_16"/>
  <g id="svg_17"/>
  <g id="svg_18"/>
 </g>
</svg>